# MagicaVoxel @ Ephtracy

# group
o 

# material
mtllib JETT2.mtl
usemtl palette

# normals
vn -1 0 0
vn 1 0 0
vn 0 0 1
vn 0 0 -1
vn 0 -1 0
vn 0 1 0

# texcoords
vt 0.0292969 0.5
vt 0.587891 0.5
vt 0.615234 0.5
vt 0.958984 0.5
vt 0.982422 0.5
vt 0.986328 0.5
vt 0.990234 0.5

# verts
v -0.3 0.4 -0.1
v -0.3 0.4 -0.5
v -0.3 0.5 -0.1
v -0.3 0.5 -0.5
v -0.2 0.6 -0.2
v -0.2 0.6 -0.3
v -0.2 0.7 -0.1
v -0.2 0.7 -0.2
v -0.2 0.7 -0.3
v -0.2 0.7 -0.4
v -0.2 0.9 -0.1
v -0.2 0.9 -0.2
v -0.2 1 -0.2
v -0.2 1 -0.4
v -0.1 0 -0.1
v -0.1 0 -0.3
v -0.1 0.1 -0.1
v -0.1 0.1 -0.3
v -0.1 0.3 -0.1
v -0.1 0.3 -0.2
v -0.1 0.3 -0.3
v -0.1 0.4 -0.1
v -0.1 0.4 -0.2
v -0.1 0.4 -0.3
v -0.1 0.6 0
v -0.1 0.6 -0.1
v -0.1 0.6 -0.2
v -0.1 0.7 -0.1
v -0.1 0.7 -0.2
v -0.1 0.9 0
v -0.1 0.9 -0.1
v -0.1 0.9 -0.2
v -0.1 1 -0.1
v -0.1 1 -0.2
v 0 0.5 -0.1
v 0 0.5 -0.3
v 0 0.6 -0.1
v 0 0.6 -0.3
v 0 0.7 -0.3
v 0 0.7 -0.4
v 0 0.8 0.2
v 0 0.8 0
v 0 0.8 -0.3
v 0 0.8 -0.4
v 0 0.9 0.2
v 0 0.9 0.1
v 0 0.9 0
v 0 0.9 -0.1
v 0 1 0.1
v 0 1 -0.1
v 0.1 0 -0.1
v 0.1 0 -0.3
v 0.1 0.1 -0.1
v 0.1 0.1 -0.3
v 0.1 0.2 -0.1
v 0.1 0.2 -0.3
v 0.2 0.6 -0.3
v 0.2 0.6 -0.4
v 0.2 0.7 -0.3
v 0.2 0.8 -0.3
v 0.2 0.8 -0.4
v 0.3 0.4 -0.3
v 0.3 0.4 -0.5
v 0.3 0.5 -0.3
v 0.3 0.5 -0.5
v -0.2 0.4 -0.3
v -0.2 0.4 -0.5
v -0.2 0.5 -0.3
v -0.2 0.5 -0.5
v -0.1 0.7 -0.3
v -0.1 0.7 -0.4
v -0.1 0.8 -0.3
v -0.1 0.8 -0.4
v 0 0 -0.1
v 0 0 -0.3
v 0 0.1 -0.1
v 0 0.1 -0.3
v 0 0.2 -0.1
v 0 0.2 -0.3
v 0.1 0.5 -0.1
v 0.1 0.5 -0.3
v 0.1 0.6 -0.1
v 0.1 0.6 -0.3
v 0.1 0.7 -0.3
v 0.1 0.7 -0.4
v 0.1 0.8 0.2
v 0.1 0.8 0
v 0.1 0.8 -0.3
v 0.1 0.8 -0.4
v 0.1 0.9 0.2
v 0.1 0.9 0.1
v 0.1 0.9 0
v 0.1 0.9 -0.1
v 0.1 1 0.1
v 0.1 1 -0.1
v 0.2 0 -0.1
v 0.2 0 -0.3
v 0.2 0.1 -0.1
v 0.2 0.1 -0.3
v 0.2 0.3 -0.1
v 0.2 0.3 -0.2
v 0.2 0.3 -0.3
v 0.2 0.4 -0.1
v 0.2 0.4 -0.2
v 0.2 0.4 -0.3
v 0.2 0.6 0
v 0.2 0.6 -0.1
v 0.2 0.6 -0.2
v 0.2 0.7 -0.1
v 0.2 0.7 -0.2
v 0.2 0.9 0
v 0.2 0.9 -0.1
v 0.2 0.9 -0.2
v 0.2 1 -0.1
v 0.2 1 -0.2
v 0.3 0.6 -0.2
v 0.3 0.6 -0.4
v 0.3 0.7 -0.1
v 0.3 0.7 -0.2
v 0.3 0.7 -0.3
v 0.3 0.9 -0.1
v 0.3 0.9 -0.2
v 0.3 1 -0.3
v 0.3 1 -0.4
v 0.4 0.4 -0.1
v 0.4 0.4 -0.5
v 0.4 0.5 -0.1
v 0.4 0.5 -0.5
v 0.4 0.7 -0.2
v 0.4 0.7 -0.3
v 0.4 1 -0.2
v 0.4 1 -0.3
v 0 0.8 0.2
v 0 0.9 0.2
v 0.1 0.8 0.2
v 0.1 0.9 0.2
v 0 0.9 0.1
v 0 1 0.1
v 0.1 0.9 0.1
v 0.1 1 0.1
v -0.1 0.6 0
v -0.1 0.9 0
v 0 0.8 0
v 0 0.9 0
v 0.1 0.8 0
v 0.1 0.9 0
v 0.2 0.6 0
v 0.2 0.9 0
v -0.3 0.4 -0.1
v -0.3 0.5 -0.1
v -0.2 0.4 -0.1
v -0.2 0.5 -0.1
v -0.2 0.7 -0.1
v -0.2 0.9 -0.1
v -0.1 0 -0.1
v -0.1 0.1 -0.1
v -0.1 0.3 -0.1
v -0.1 0.4 -0.1
v -0.1 0.7 -0.1
v -0.1 0.9 -0.1
v -0.1 1 -0.1
v 0 0 -0.1
v 0 0.1 -0.1
v 0 0.2 -0.1
v 0 0.5 -0.1
v 0 0.6 -0.1
v 0 0.9 -0.1
v 0 1 -0.1
v 0.1 0 -0.1
v 0.1 0.1 -0.1
v 0.1 0.2 -0.1
v 0.1 0.5 -0.1
v 0.1 0.6 -0.1
v 0.1 0.9 -0.1
v 0.1 1 -0.1
v 0.2 0 -0.1
v 0.2 0.1 -0.1
v 0.2 0.3 -0.1
v 0.2 0.4 -0.1
v 0.2 0.7 -0.1
v 0.2 0.9 -0.1
v 0.2 1 -0.1
v 0.3 0.4 -0.1
v 0.3 0.5 -0.1
v 0.3 0.7 -0.1
v 0.3 0.9 -0.1
v 0.4 0.4 -0.1
v 0.4 0.5 -0.1
v -0.2 0.6 -0.2
v -0.2 0.7 -0.2
v -0.2 0.9 -0.2
v -0.2 1 -0.2
v -0.1 0.6 -0.2
v -0.1 0.7 -0.2
v -0.1 0.9 -0.2
v -0.1 1 -0.2
v 0.2 0.6 -0.2
v 0.2 0.7 -0.2
v 0.2 0.9 -0.2
v 0.2 1 -0.2
v 0.3 0.6 -0.2
v 0.3 0.7 -0.2
v 0.3 0.9 -0.2
v 0.4 0.7 -0.2
v 0.4 1 -0.2
v -0.2 0.4 -0.3
v -0.2 0.5 -0.3
v -0.2 0.6 -0.3
v -0.2 0.7 -0.3
v -0.1 0 -0.3
v -0.1 0.1 -0.3
v -0.1 0.3 -0.3
v -0.1 0.4 -0.3
v -0.1 0.6 -0.3
v -0.1 0.7 -0.3
v -0.1 0.8 -0.3
v 0 0 -0.3
v 0 0.1 -0.3
v 0 0.2 -0.3
v 0 0.5 -0.3
v 0 0.6 -0.3
v 0 0.7 -0.3
v 0 0.8 -0.3
v 0.1 0 -0.3
v 0.1 0.1 -0.3
v 0.1 0.2 -0.3
v 0.1 0.5 -0.3
v 0.1 0.6 -0.3
v 0.1 0.7 -0.3
v 0.1 0.8 -0.3
v 0.2 0 -0.3
v 0.2 0.1 -0.3
v 0.2 0.3 -0.3
v 0.2 0.4 -0.3
v 0.2 0.6 -0.3
v 0.2 0.7 -0.3
v 0.2 0.8 -0.3
v 0.3 0.4 -0.3
v 0.3 0.5 -0.3
v 0.3 0.7 -0.3
v 0.3 1 -0.3
v 0.4 0.7 -0.3
v 0.4 1 -0.3
v -0.2 0.7 -0.4
v -0.2 1 -0.4
v -0.1 0.7 -0.4
v -0.1 0.8 -0.4
v 0 0.7 -0.4
v 0 0.8 -0.4
v 0.1 0.7 -0.4
v 0.1 0.8 -0.4
v 0.2 0.6 -0.4
v 0.2 0.8 -0.4
v 0.3 0.6 -0.4
v 0.3 1 -0.4
v -0.3 0.4 -0.5
v -0.3 0.5 -0.5
v -0.2 0.4 -0.5
v -0.2 0.5 -0.5
v 0.3 0.4 -0.5
v 0.3 0.5 -0.5
v 0.4 0.4 -0.5
v 0.4 0.5 -0.5
v -0.1 0 -0.1
v 0 0 -0.1
v 0.1 0 -0.1
v 0.2 0 -0.1
v -0.1 0 -0.3
v 0 0 -0.3
v 0.1 0 -0.3
v 0.2 0 -0.3
v 0 0.2 -0.1
v 0.1 0.2 -0.1
v 0 0.2 -0.3
v 0.1 0.2 -0.3
v -0.3 0.4 -0.1
v -0.2 0.4 -0.1
v -0.1 0.4 -0.1
v 0.2 0.4 -0.1
v 0.3 0.4 -0.1
v 0.4 0.4 -0.1
v -0.1 0.4 -0.2
v 0.2 0.4 -0.2
v -0.2 0.4 -0.3
v -0.1 0.4 -0.3
v 0.2 0.4 -0.3
v 0.3 0.4 -0.3
v -0.3 0.4 -0.5
v -0.2 0.4 -0.5
v 0.3 0.4 -0.5
v 0.4 0.4 -0.5
v -0.1 0.6 0
v 0.2 0.6 0
v -0.1 0.6 -0.1
v 0 0.6 -0.1
v 0.1 0.6 -0.1
v 0.2 0.6 -0.1
v -0.2 0.6 -0.2
v -0.1 0.6 -0.2
v 0.2 0.6 -0.2
v 0.3 0.6 -0.2
v -0.2 0.6 -0.3
v -0.1 0.6 -0.3
v 0 0.6 -0.3
v 0.1 0.6 -0.3
v 0.2 0.6 -0.3
v 0.2 0.6 -0.4
v 0.3 0.6 -0.4
v -0.2 0.7 -0.1
v -0.1 0.7 -0.1
v 0.2 0.7 -0.1
v 0.3 0.7 -0.1
v -0.2 0.7 -0.2
v -0.1 0.7 -0.2
v 0.2 0.7 -0.2
v 0.3 0.7 -0.2
v 0.4 0.7 -0.2
v -0.2 0.7 -0.3
v -0.1 0.7 -0.3
v 0 0.7 -0.3
v 0.1 0.7 -0.3
v 0.3 0.7 -0.3
v 0.4 0.7 -0.3
v -0.2 0.7 -0.4
v -0.1 0.7 -0.4
v 0 0.7 -0.4
v 0.1 0.7 -0.4
v 0 0.8 0.2
v 0.1 0.8 0.2
v 0 0.8 0
v 0.1 0.8 0
v -0.1 0.8 -0.3
v 0 0.8 -0.3
v 0.1 0.8 -0.3
v 0.2 0.8 -0.3
v -0.1 0.8 -0.4
v 0 0.8 -0.4
v 0.1 0.8 -0.4
v 0.2 0.8 -0.4
v -0.3 0.5 -0.1
v -0.2 0.5 -0.1
v 0 0.5 -0.1
v 0.1 0.5 -0.1
v 0.3 0.5 -0.1
v 0.4 0.5 -0.1
v -0.2 0.5 -0.3
v 0 0.5 -0.3
v 0.1 0.5 -0.3
v 0.3 0.5 -0.3
v -0.3 0.5 -0.5
v -0.2 0.5 -0.5
v 0.3 0.5 -0.5
v 0.4 0.5 -0.5
v 0 0.9 0.2
v 0.1 0.9 0.2
v 0 0.9 0.1
v 0.1 0.9 0.1
v -0.1 0.9 0
v 0 0.9 0
v 0.1 0.9 0
v 0.2 0.9 0
v -0.2 0.9 -0.1
v -0.1 0.9 -0.1
v 0 0.9 -0.1
v 0.1 0.9 -0.1
v 0.2 0.9 -0.1
v 0.3 0.9 -0.1
v -0.2 0.9 -0.2
v -0.1 0.9 -0.2
v 0.2 0.9 -0.2
v 0.3 0.9 -0.2
v 0 1 0.1
v 0.1 1 0.1
v -0.1 1 -0.1
v 0 1 -0.1
v 0.1 1 -0.1
v 0.2 1 -0.1
v -0.2 1 -0.2
v -0.1 1 -0.2
v 0.2 1 -0.2
v 0.4 1 -0.2
v 0.3 1 -0.3
v 0.4 1 -0.3
v -0.2 1 -0.4
v 0.3 1 -0.4

# faces
f 3/1/1 2/1/1 1/1/1
f 4/1/1 2/1/1 3/1/1
f 8/4/1 6/4/1 5/4/1
f 9/4/1 6/4/1 8/4/1
f 11/4/1 8/4/1 7/4/1
f 11/4/1 10/4/1 9/4/1
f 11/4/1 9/4/1 8/4/1
f 12/4/1 10/4/1 11/4/1
f 13/4/1 10/4/1 12/4/1
f 14/4/1 10/4/1 13/4/1
f 17/6/1 16/6/1 15/6/1
f 18/6/1 16/6/1 17/6/1
f 19/5/1 18/5/1 17/5/1
f 20/5/1 18/5/1 19/5/1
f 21/5/1 18/5/1 20/5/1
f 22/3/1 20/3/1 19/3/1
f 23/2/1 21/2/1 20/2/1
f 23/3/1 20/3/1 22/3/1
f 24/2/1 21/2/1 23/2/1
f 28/4/1 26/4/1 25/4/1
f 28/1/1 27/1/1 26/1/1
f 29/1/1 27/1/1 28/1/1
f 30/4/1 28/4/1 25/4/1
f 31/4/1 28/4/1 30/4/1
f 33/4/1 32/4/1 31/4/1
f 34/4/1 32/4/1 33/4/1
f 37/1/1 36/1/1 35/1/1
f 38/1/1 36/1/1 37/1/1
f 43/4/1 40/4/1 39/4/1
f 44/4/1 40/4/1 43/4/1
f 45/4/1 42/4/1 41/4/1
f 46/4/1 42/4/1 45/4/1
f 47/4/1 42/4/1 46/4/1
f 49/4/1 48/4/1 47/4/1
f 49/4/1 47/4/1 46/4/1
f 50/4/1 48/4/1 49/4/1
f 53/6/1 52/6/1 51/6/1
f 54/6/1 52/6/1 53/6/1
f 55/5/1 54/5/1 53/5/1
f 56/5/1 54/5/1 55/5/1
f 59/4/1 58/4/1 57/4/1
f 60/4/1 58/4/1 59/4/1
f 61/4/1 58/4/1 60/4/1
f 64/1/1 63/1/1 62/1/1
f 65/1/1 63/1/1 64/1/1
f 66/1/2 67/1/2 68/1/2
f 68/1/2 67/1/2 69/1/2
f 70/4/2 71/4/2 72/4/2
f 72/4/2 71/4/2 73/4/2
f 74/6/2 75/6/2 76/6/2
f 76/6/2 75/6/2 77/6/2
f 76/5/2 77/5/2 78/5/2
f 78/5/2 77/5/2 79/5/2
f 80/1/2 81/1/2 82/1/2
f 82/1/2 81/1/2 83/1/2
f 84/4/2 85/4/2 88/4/2
f 88/4/2 85/4/2 89/4/2
f 86/4/2 87/4/2 90/4/2
f 90/4/2 87/4/2 91/4/2
f 91/4/2 87/4/2 92/4/2
f 92/4/2 93/4/2 94/4/2
f 91/4/2 92/4/2 94/4/2
f 94/4/2 93/4/2 95/4/2
f 96/6/2 97/6/2 98/6/2
f 98/6/2 97/6/2 99/6/2
f 98/5/2 99/5/2 100/5/2
f 100/5/2 99/5/2 101/5/2
f 101/5/2 99/5/2 102/5/2
f 100/3/2 101/3/2 103/3/2
f 101/2/2 102/2/2 104/2/2
f 103/3/2 101/3/2 104/3/2
f 104/2/2 102/2/2 105/2/2
f 106/4/2 107/4/2 109/4/2
f 107/1/2 108/1/2 109/1/2
f 109/1/2 108/1/2 110/1/2
f 106/4/2 109/4/2 111/4/2
f 111/4/2 109/4/2 112/4/2
f 112/4/2 113/4/2 114/4/2
f 114/4/2 113/4/2 115/4/2
f 116/4/2 117/4/2 119/4/2
f 119/4/2 117/4/2 120/4/2
f 118/4/2 119/4/2 121/4/2
f 121/4/2 119/4/2 122/4/2
f 120/4/2 117/4/2 123/4/2
f 123/4/2 117/4/2 124/4/2
f 125/1/2 126/1/2 127/1/2
f 127/1/2 126/1/2 128/1/2
f 129/4/2 130/4/2 131/4/2
f 131/4/2 130/4/2 132/4/2
f 135/4/3 134/4/3 133/4/3
f 136/4/3 134/4/3 135/4/3
f 139/4/3 138/4/3 137/4/3
f 140/4/3 138/4/3 139/4/3
f 143/4/3 142/4/3 141/4/3
f 144/4/3 142/4/3 143/4/3
f 145/4/3 143/4/3 141/4/3
f 147/4/3 145/4/3 141/4/3
f 147/4/3 146/4/3 145/4/3
f 148/4/3 146/4/3 147/4/3
f 151/1/3 150/1/3 149/1/3
f 152/1/3 150/1/3 151/1/3
f 158/2/3 152/2/3 151/2/3
f 159/4/3 154/4/3 153/4/3
f 160/4/3 154/4/3 159/4/3
f 162/6/3 156/6/3 155/6/3
f 163/5/3 157/5/3 156/5/3
f 163/6/3 156/6/3 162/6/3
f 164/5/3 157/5/3 163/5/3
f 165/2/3 152/2/3 158/2/3
f 167/4/3 161/4/3 160/4/3
f 168/4/3 161/4/3 167/4/3
f 171/5/3 157/5/3 164/5/3
f 172/1/3 166/1/3 165/1/3
f 172/2/3 165/2/3 158/2/3
f 173/1/3 166/1/3 172/1/3
f 176/6/3 170/6/3 169/6/3
f 177/5/3 171/5/3 170/5/3
f 177/6/3 170/6/3 176/6/3
f 178/3/3 158/3/3 157/3/3
f 178/5/3 171/5/3 177/5/3
f 178/5/3 157/5/3 171/5/3
f 179/2/3 172/2/3 158/2/3
f 179/3/3 158/3/3 178/3/3
f 181/4/3 175/4/3 174/4/3
f 182/4/3 175/4/3 181/4/3
f 183/2/3 172/2/3 179/2/3
f 184/2/3 172/2/3 183/2/3
f 185/4/3 181/4/3 180/4/3
f 186/4/3 181/4/3 185/4/3
f 187/1/3 184/1/3 183/1/3
f 188/1/3 184/1/3 187/1/3
f 193/4/3 190/4/3 189/4/3
f 194/4/3 190/4/3 193/4/3
f 195/4/3 192/4/3 191/4/3
f 196/4/3 192/4/3 195/4/3
f 201/4/3 198/4/3 197/4/3
f 202/4/3 198/4/3 201/4/3
f 203/4/3 200/4/3 199/4/3
f 204/4/3 203/4/3 202/4/3
f 205/4/3 200/4/3 203/4/3
f 205/4/3 203/4/3 204/4/3
f 206/2/4 207/2/4 213/2/4
f 208/4/4 209/4/4 214/4/4
f 214/4/4 209/4/4 215/4/4
f 210/6/4 211/6/4 217/6/4
f 211/5/4 212/5/4 218/5/4
f 217/6/4 211/6/4 218/6/4
f 218/5/4 212/5/4 219/5/4
f 212/2/4 213/2/4 220/2/4
f 213/2/4 207/2/4 220/2/4
f 214/1/4 215/1/4 221/1/4
f 215/7/4 216/7/4 222/7/4
f 221/1/4 215/1/4 222/1/4
f 222/7/4 216/7/4 223/7/4
f 219/5/4 212/5/4 226/5/4
f 220/1/4 221/1/4 227/1/4
f 212/2/4 220/2/4 227/2/4
f 221/1/4 222/1/4 227/1/4
f 227/1/4 222/1/4 228/1/4
f 228/1/4 222/1/4 229/1/4
f 224/6/4 225/6/4 231/6/4
f 225/5/4 226/5/4 232/5/4
f 231/6/4 225/6/4 232/6/4
f 226/5/4 212/5/4 233/5/4
f 232/5/4 226/5/4 233/5/4
f 212/2/4 227/2/4 233/2/4
f 233/2/4 227/2/4 234/2/4
f 228/1/4 229/1/4 235/1/4
f 229/7/4 230/7/4 236/7/4
f 235/1/4 229/1/4 236/1/4
f 236/7/4 230/7/4 237/7/4
f 234/2/4 227/2/4 238/2/4
f 238/2/4 227/2/4 239/2/4
f 240/4/4 241/4/4 242/4/4
f 242/4/4 241/4/4 243/4/4
f 244/4/4 245/4/4 246/4/4
f 246/4/4 245/4/4 247/4/4
f 247/4/4 245/4/4 249/4/4
f 248/4/4 249/4/4 250/4/4
f 249/4/4 245/4/4 251/4/4
f 250/4/4 249/4/4 251/4/4
f 251/4/4 245/4/4 253/4/4
f 252/4/4 253/4/4 254/4/4
f 253/4/4 245/4/4 255/4/4
f 254/4/4 253/4/4 255/4/4
f 256/1/4 257/1/4 258/1/4
f 258/1/4 257/1/4 259/1/4
f 260/1/4 261/1/4 262/1/4
f 262/1/4 261/1/4 263/1/4
f 268/6/5 265/6/5 264/6/5
f 269/6/5 265/6/5 268/6/5
f 270/6/5 267/6/5 266/6/5
f 271/6/5 267/6/5 270/6/5
f 274/5/5 273/5/5 272/5/5
f 275/5/5 273/5/5 274/5/5
f 282/2/5 278/2/5 277/2/5
f 283/2/5 280/2/5 279/2/5
f 284/1/5 277/1/5 276/1/5
f 284/2/5 282/2/5 277/2/5
f 285/2/5 282/2/5 284/2/5
f 286/2/5 280/2/5 283/2/5
f 287/1/5 281/1/5 280/1/5
f 287/2/5 280/2/5 286/2/5
f 288/1/5 284/1/5 276/1/5
f 289/1/5 284/1/5 288/1/5
f 290/1/5 281/1/5 287/1/5
f 291/1/5 281/1/5 290/1/5
f 294/4/5 293/4/5 292/4/5
f 295/4/5 293/4/5 294/4/5
f 296/4/5 293/4/5 295/4/5
f 297/4/5 293/4/5 296/4/5
f 299/1/5 295/1/5 294/1/5
f 300/1/5 297/1/5 296/1/5
f 302/4/5 299/4/5 298/4/5
f 303/1/5 295/1/5 299/1/5
f 303/4/5 299/4/5 302/4/5
f 304/1/5 295/1/5 303/1/5
f 305/1/5 300/1/5 296/1/5
f 306/4/5 301/4/5 300/4/5
f 306/1/5 300/1/5 305/1/5
f 307/4/5 301/4/5 306/4/5
f 308/4/5 301/4/5 307/4/5
f 313/4/5 310/4/5 309/4/5
f 314/4/5 310/4/5 313/4/5
f 315/4/5 312/4/5 311/4/5
f 316/4/5 312/4/5 315/4/5
f 322/4/5 317/4/5 316/4/5
f 323/4/5 317/4/5 322/4/5
f 324/4/5 319/4/5 318/4/5
f 325/4/5 319/4/5 324/4/5
f 326/4/5 321/4/5 320/4/5
f 327/4/5 321/4/5 326/4/5
f 330/4/5 329/4/5 328/4/5
f 331/4/5 329/4/5 330/4/5
f 336/4/5 333/4/5 332/4/5
f 337/4/5 333/4/5 336/4/5
f 338/4/5 335/4/5 334/4/5
f 339/4/5 335/4/5 338/4/5
f 340/1/6 341/1/6 346/1/6
f 341/2/6 342/2/6 346/2/6
f 346/2/6 342/2/6 347/2/6
f 343/2/6 344/2/6 348/2/6
f 344/1/6 345/1/6 349/1/6
f 348/2/6 344/2/6 349/2/6
f 340/1/6 346/1/6 350/1/6
f 350/1/6 346/1/6 351/1/6
f 349/1/6 345/1/6 352/1/6
f 352/1/6 345/1/6 353/1/6
f 354/4/6 355/4/6 356/4/6
f 356/4/6 355/4/6 357/4/6
f 358/4/6 359/4/6 363/4/6
f 363/4/6 359/4/6 364/4/6
f 360/4/6 361/4/6 365/4/6
f 365/4/6 361/4/6 366/4/6
f 362/4/6 363/4/6 368/4/6
f 368/4/6 363/4/6 369/4/6
f 366/4/6 367/4/6 370/4/6
f 370/4/6 367/4/6 371/4/6
f 372/4/6 373/4/6 375/4/6
f 375/4/6 373/4/6 376/4/6
f 374/4/6 375/4/6 379/4/6
f 376/4/6 377/4/6 379/4/6
f 375/4/6 376/4/6 379/4/6
f 379/4/6 377/4/6 380/4/6
f 378/4/6 379/4/6 382/4/6
f 380/4/6 381/4/6 382/4/6
f 379/4/6 380/4/6 382/4/6
f 382/4/6 381/4/6 383/4/6
f 378/4/6 382/4/6 384/4/6
f 384/4/6 382/4/6 385/4/6
