# MagicaVoxel @ Ephtracy

# group
o 

# material
mtllib jett.mtl
usemtl palette

# normals
vn -1 0 0
vn 1 0 0
vn 0 0 1
vn 0 0 -1
vn 0 -1 0
vn 0 1 0

# texcoords
vt 0.0292969 0.5
vt 0.587891 0.5
vt 0.615234 0.5
vt 0.958984 0.5
vt 0.982422 0.5
vt 0.986328 0.5
vt 0.990234 0.5

# verts
v -0.3 0.4 -0.1
v -0.3 0.4 -0.5
v -0.3 0.5 -0.1
v -0.3 0.5 -0.5
v -0.2 0.6 -0.2
v -0.2 0.6 -0.3
v -0.2 0.7 -0.1
v -0.2 0.7 -0.2
v -0.2 0.7 -0.3
v -0.2 0.7 -0.4
v -0.2 0.9 -0.1
v -0.2 0.9 -0.2
v -0.2 1 -0.2
v -0.2 1 -0.4
v -0.1 0 -0.1
v -0.1 0 -0.3
v -0.1 0.1 -0.1
v -0.1 0.1 -0.3
v -0.1 0.3 -0.1
v -0.1 0.3 -0.2
v -0.1 0.3 -0.3
v -0.1 0.4 -0.1
v -0.1 0.4 -0.2
v -0.1 0.4 -0.3
v -0.1 0.6 0
v -0.1 0.6 -0.1
v -0.1 0.6 -0.2
v -0.1 0.7 0.2
v -0.1 0.7 0
v -0.1 0.7 -0.1
v -0.1 0.7 -0.2
v -0.1 0.8 0.2
v -0.1 0.8 0
v -0.1 0.9 0
v -0.1 0.9 -0.1
v -0.1 0.9 -0.2
v -0.1 1 -0.1
v -0.1 1 -0.2
v 0 0.5 -0.1
v 0 0.5 -0.3
v 0 0.6 -0.1
v 0 0.6 -0.3
v 0 0.7 0.3
v 0 0.7 0.2
v 0 0.7 -0.3
v 0 0.7 -0.4
v 0 0.8 0.3
v 0 0.8 0.2
v 0 0.8 0.1
v 0 0.8 0
v 0 0.8 -0.3
v 0 0.8 -0.4
v 0 0.9 0.1
v 0 0.9 0
v 0.1 0 -0.1
v 0.1 0 -0.3
v 0.1 0.1 -0.1
v 0.1 0.1 -0.3
v 0.1 0.2 -0.1
v 0.1 0.2 -0.3
v 0.2 0.6 -0.3
v 0.2 0.6 -0.4
v 0.2 0.7 -0.3
v 0.2 0.8 -0.3
v 0.2 0.8 -0.4
v 0.3 0.4 -0.3
v 0.3 0.4 -0.5
v 0.3 0.5 -0.3
v 0.3 0.5 -0.5
v -0.2 0.4 -0.3
v -0.2 0.4 -0.5
v -0.2 0.5 -0.3
v -0.2 0.5 -0.5
v -0.1 0.7 -0.3
v -0.1 0.7 -0.4
v -0.1 0.8 -0.3
v -0.1 0.8 -0.4
v 0 0 -0.1
v 0 0 -0.3
v 0 0.1 -0.1
v 0 0.1 -0.3
v 0 0.2 -0.1
v 0 0.2 -0.3
v 0.1 0.5 -0.1
v 0.1 0.5 -0.3
v 0.1 0.6 -0.1
v 0.1 0.6 -0.3
v 0.1 0.7 0.3
v 0.1 0.7 0.1
v 0.1 0.7 -0.3
v 0.1 0.7 -0.4
v 0.1 0.8 0.3
v 0.1 0.8 0.1
v 0.1 0.8 0
v 0.1 0.8 -0.3
v 0.1 0.8 -0.4
v 0.1 0.9 0.1
v 0.1 0.9 0
v 0.2 0 -0.1
v 0.2 0 -0.3
v 0.2 0.1 -0.1
v 0.2 0.1 -0.3
v 0.2 0.3 -0.1
v 0.2 0.3 -0.2
v 0.2 0.3 -0.3
v 0.2 0.4 -0.1
v 0.2 0.4 -0.2
v 0.2 0.4 -0.3
v 0.2 0.6 0
v 0.2 0.6 -0.1
v 0.2 0.6 -0.2
v 0.2 0.7 0.1
v 0.2 0.7 0
v 0.2 0.7 -0.1
v 0.2 0.7 -0.2
v 0.2 0.8 0.1
v 0.2 0.8 0
v 0.2 0.9 0
v 0.2 0.9 -0.1
v 0.2 0.9 -0.2
v 0.2 1 -0.1
v 0.2 1 -0.2
v 0.3 0.6 -0.2
v 0.3 0.6 -0.4
v 0.3 0.7 -0.1
v 0.3 0.7 -0.2
v 0.3 0.7 -0.3
v 0.3 0.9 -0.1
v 0.3 0.9 -0.2
v 0.3 1 -0.3
v 0.3 1 -0.4
v 0.4 0.4 -0.1
v 0.4 0.4 -0.5
v 0.4 0.5 -0.1
v 0.4 0.5 -0.5
v 0.4 0.7 -0.2
v 0.4 0.7 -0.3
v 0.4 1 -0.2
v 0.4 1 -0.3
v 0 0.7 0.3
v 0 0.8 0.3
v 0.1 0.7 0.3
v 0.1 0.8 0.3
v -0.1 0.7 0.2
v -0.1 0.8 0.2
v 0 0.7 0.2
v 0 0.8 0.2
v 0 0.8 0.1
v 0 0.9 0.1
v 0.1 0.7 0.1
v 0.1 0.8 0.1
v 0.1 0.9 0.1
v 0.2 0.7 0.1
v 0.2 0.8 0.1
v -0.1 0.6 0
v -0.1 0.7 0
v -0.1 0.8 0
v -0.1 0.9 0
v 0 0.8 0
v 0 0.9 0
v 0.1 0.8 0
v 0.1 0.9 0
v 0.2 0.6 0
v 0.2 0.7 0
v 0.2 0.8 0
v 0.2 0.9 0
v -0.3 0.4 -0.1
v -0.3 0.5 -0.1
v -0.2 0.4 -0.1
v -0.2 0.5 -0.1
v -0.2 0.7 -0.1
v -0.2 0.9 -0.1
v -0.1 0 -0.1
v -0.1 0.1 -0.1
v -0.1 0.3 -0.1
v -0.1 0.4 -0.1
v -0.1 0.7 -0.1
v -0.1 0.9 -0.1
v -0.1 1 -0.1
v 0 0 -0.1
v 0 0.1 -0.1
v 0 0.2 -0.1
v 0 0.5 -0.1
v 0 0.6 -0.1
v 0.1 0 -0.1
v 0.1 0.1 -0.1
v 0.1 0.2 -0.1
v 0.1 0.5 -0.1
v 0.1 0.6 -0.1
v 0.2 0 -0.1
v 0.2 0.1 -0.1
v 0.2 0.3 -0.1
v 0.2 0.4 -0.1
v 0.2 0.7 -0.1
v 0.2 0.9 -0.1
v 0.2 1 -0.1
v 0.3 0.4 -0.1
v 0.3 0.5 -0.1
v 0.3 0.7 -0.1
v 0.3 0.9 -0.1
v 0.4 0.4 -0.1
v 0.4 0.5 -0.1
v -0.2 0.6 -0.2
v -0.2 0.7 -0.2
v -0.2 0.9 -0.2
v -0.2 1 -0.2
v -0.1 0.6 -0.2
v -0.1 0.7 -0.2
v -0.1 0.9 -0.2
v -0.1 1 -0.2
v 0.2 0.6 -0.2
v 0.2 0.7 -0.2
v 0.2 0.9 -0.2
v 0.2 1 -0.2
v 0.3 0.6 -0.2
v 0.3 0.7 -0.2
v 0.3 0.9 -0.2
v 0.4 0.7 -0.2
v 0.4 1 -0.2
v -0.2 0.4 -0.3
v -0.2 0.5 -0.3
v -0.2 0.6 -0.3
v -0.2 0.7 -0.3
v -0.1 0 -0.3
v -0.1 0.1 -0.3
v -0.1 0.3 -0.3
v -0.1 0.4 -0.3
v -0.1 0.6 -0.3
v -0.1 0.7 -0.3
v -0.1 0.8 -0.3
v 0 0 -0.3
v 0 0.1 -0.3
v 0 0.2 -0.3
v 0 0.5 -0.3
v 0 0.6 -0.3
v 0 0.7 -0.3
v 0 0.8 -0.3
v 0.1 0 -0.3
v 0.1 0.1 -0.3
v 0.1 0.2 -0.3
v 0.1 0.5 -0.3
v 0.1 0.6 -0.3
v 0.1 0.7 -0.3
v 0.1 0.8 -0.3
v 0.2 0 -0.3
v 0.2 0.1 -0.3
v 0.2 0.3 -0.3
v 0.2 0.4 -0.3
v 0.2 0.6 -0.3
v 0.2 0.7 -0.3
v 0.2 0.8 -0.3
v 0.3 0.4 -0.3
v 0.3 0.5 -0.3
v 0.3 0.7 -0.3
v 0.3 1 -0.3
v 0.4 0.7 -0.3
v 0.4 1 -0.3
v -0.2 0.7 -0.4
v -0.2 1 -0.4
v -0.1 0.7 -0.4
v -0.1 0.8 -0.4
v 0 0.7 -0.4
v 0 0.8 -0.4
v 0.1 0.7 -0.4
v 0.1 0.8 -0.4
v 0.2 0.6 -0.4
v 0.2 0.8 -0.4
v 0.3 0.6 -0.4
v 0.3 1 -0.4
v -0.3 0.4 -0.5
v -0.3 0.5 -0.5
v -0.2 0.4 -0.5
v -0.2 0.5 -0.5
v 0.3 0.4 -0.5
v 0.3 0.5 -0.5
v 0.4 0.4 -0.5
v 0.4 0.5 -0.5
v -0.1 0 -0.1
v 0 0 -0.1
v 0.1 0 -0.1
v 0.2 0 -0.1
v -0.1 0 -0.3
v 0 0 -0.3
v 0.1 0 -0.3
v 0.2 0 -0.3
v 0 0.2 -0.1
v 0.1 0.2 -0.1
v 0 0.2 -0.3
v 0.1 0.2 -0.3
v -0.3 0.4 -0.1
v -0.2 0.4 -0.1
v -0.1 0.4 -0.1
v 0.2 0.4 -0.1
v 0.3 0.4 -0.1
v 0.4 0.4 -0.1
v -0.1 0.4 -0.2
v 0.2 0.4 -0.2
v -0.2 0.4 -0.3
v -0.1 0.4 -0.3
v 0.2 0.4 -0.3
v 0.3 0.4 -0.3
v -0.3 0.4 -0.5
v -0.2 0.4 -0.5
v 0.3 0.4 -0.5
v 0.4 0.4 -0.5
v -0.1 0.6 0
v 0.2 0.6 0
v -0.1 0.6 -0.1
v 0 0.6 -0.1
v 0.1 0.6 -0.1
v 0.2 0.6 -0.1
v -0.2 0.6 -0.2
v -0.1 0.6 -0.2
v 0.2 0.6 -0.2
v 0.3 0.6 -0.2
v -0.2 0.6 -0.3
v -0.1 0.6 -0.3
v 0 0.6 -0.3
v 0.1 0.6 -0.3
v 0.2 0.6 -0.3
v 0.2 0.6 -0.4
v 0.3 0.6 -0.4
v 0 0.7 0.3
v 0.1 0.7 0.3
v -0.1 0.7 0.2
v 0 0.7 0.2
v 0.1 0.7 0.1
v 0.2 0.7 0.1
v -0.1 0.7 0
v 0.2 0.7 0
v -0.2 0.7 -0.1
v -0.1 0.7 -0.1
v 0.2 0.7 -0.1
v 0.3 0.7 -0.1
v -0.2 0.7 -0.2
v -0.1 0.7 -0.2
v 0.2 0.7 -0.2
v 0.3 0.7 -0.2
v 0.4 0.7 -0.2
v -0.2 0.7 -0.3
v -0.1 0.7 -0.3
v 0 0.7 -0.3
v 0.1 0.7 -0.3
v 0.3 0.7 -0.3
v 0.4 0.7 -0.3
v -0.2 0.7 -0.4
v -0.1 0.7 -0.4
v 0 0.7 -0.4
v 0.1 0.7 -0.4
v -0.1 0.8 -0.3
v 0 0.8 -0.3
v 0.1 0.8 -0.3
v 0.2 0.8 -0.3
v -0.1 0.8 -0.4
v 0 0.8 -0.4
v 0.1 0.8 -0.4
v 0.2 0.8 -0.4
v -0.3 0.5 -0.1
v -0.2 0.5 -0.1
v 0 0.5 -0.1
v 0.1 0.5 -0.1
v 0.3 0.5 -0.1
v 0.4 0.5 -0.1
v -0.2 0.5 -0.3
v 0 0.5 -0.3
v 0.1 0.5 -0.3
v 0.3 0.5 -0.3
v -0.3 0.5 -0.5
v -0.2 0.5 -0.5
v 0.3 0.5 -0.5
v 0.4 0.5 -0.5
v 0 0.8 0.3
v 0.1 0.8 0.3
v -0.1 0.8 0.2
v 0 0.8 0.2
v 0 0.8 0.1
v 0.1 0.8 0.1
v 0.2 0.8 0.1
v -0.1 0.8 0
v 0 0.8 0
v 0.1 0.8 0
v 0.2 0.8 0
v 0 0.9 0.1
v 0.1 0.9 0.1
v -0.1 0.9 0
v 0 0.9 0
v 0.1 0.9 0
v 0.2 0.9 0
v -0.2 0.9 -0.1
v -0.1 0.9 -0.1
v 0.2 0.9 -0.1
v 0.3 0.9 -0.1
v -0.2 0.9 -0.2
v -0.1 0.9 -0.2
v 0.2 0.9 -0.2
v 0.3 0.9 -0.2
v -0.1 1 -0.1
v 0.2 1 -0.1
v -0.2 1 -0.2
v -0.1 1 -0.2
v 0.2 1 -0.2
v 0.4 1 -0.2
v 0.3 1 -0.3
v 0.4 1 -0.3
v -0.2 1 -0.4
v 0.3 1 -0.4

# faces
f 3/1/1 2/1/1 1/1/1
f 4/1/1 2/1/1 3/1/1
f 8/4/1 6/4/1 5/4/1
f 9/4/1 6/4/1 8/4/1
f 11/4/1 8/4/1 7/4/1
f 11/4/1 10/4/1 9/4/1
f 11/4/1 9/4/1 8/4/1
f 12/4/1 10/4/1 11/4/1
f 13/4/1 10/4/1 12/4/1
f 14/4/1 10/4/1 13/4/1
f 17/6/1 16/6/1 15/6/1
f 18/6/1 16/6/1 17/6/1
f 19/5/1 18/5/1 17/5/1
f 20/5/1 18/5/1 19/5/1
f 21/5/1 18/5/1 20/5/1
f 22/3/1 20/3/1 19/3/1
f 23/2/1 21/2/1 20/2/1
f 23/3/1 20/3/1 22/3/1
f 24/2/1 21/2/1 23/2/1
f 29/4/1 26/4/1 25/4/1
f 30/1/1 27/1/1 26/1/1
f 30/4/1 26/4/1 29/4/1
f 31/1/1 27/1/1 30/1/1
f 32/4/1 29/4/1 28/4/1
f 32/4/1 30/4/1 29/4/1
f 33/4/1 30/4/1 32/4/1
f 34/4/1 30/4/1 33/4/1
f 35/4/1 30/4/1 34/4/1
f 37/4/1 36/4/1 35/4/1
f 38/4/1 36/4/1 37/4/1
f 41/1/1 40/1/1 39/1/1
f 42/1/1 40/1/1 41/1/1
f 47/4/1 44/4/1 43/4/1
f 48/4/1 44/4/1 47/4/1
f 51/4/1 46/4/1 45/4/1
f 52/4/1 46/4/1 51/4/1
f 53/4/1 50/4/1 49/4/1
f 54/4/1 50/4/1 53/4/1
f 57/6/1 56/6/1 55/6/1
f 58/6/1 56/6/1 57/6/1
f 59/5/1 58/5/1 57/5/1
f 60/5/1 58/5/1 59/5/1
f 63/4/1 62/4/1 61/4/1
f 64/4/1 62/4/1 63/4/1
f 65/4/1 62/4/1 64/4/1
f 68/1/1 67/1/1 66/1/1
f 69/1/1 67/1/1 68/1/1
f 70/1/2 71/1/2 72/1/2
f 72/1/2 71/1/2 73/1/2
f 74/4/2 75/4/2 76/4/2
f 76/4/2 75/4/2 77/4/2
f 78/6/2 79/6/2 80/6/2
f 80/6/2 79/6/2 81/6/2
f 80/5/2 81/5/2 82/5/2
f 82/5/2 81/5/2 83/5/2
f 84/1/2 85/1/2 86/1/2
f 86/1/2 85/1/2 87/1/2
f 88/4/2 89/4/2 92/4/2
f 92/4/2 89/4/2 93/4/2
f 90/4/2 91/4/2 95/4/2
f 95/4/2 91/4/2 96/4/2
f 93/4/2 94/4/2 97/4/2
f 97/4/2 94/4/2 98/4/2
f 99/6/2 100/6/2 101/6/2
f 101/6/2 100/6/2 102/6/2
f 101/5/2 102/5/2 103/5/2
f 103/5/2 102/5/2 104/5/2
f 104/5/2 102/5/2 105/5/2
f 103/3/2 104/3/2 106/3/2
f 104/2/2 105/2/2 107/2/2
f 106/3/2 104/3/2 107/3/2
f 107/2/2 105/2/2 108/2/2
f 109/4/2 110/4/2 113/4/2
f 110/1/2 111/1/2 114/1/2
f 113/4/2 110/4/2 114/4/2
f 114/1/2 111/1/2 115/1/2
f 112/4/2 113/4/2 116/4/2
f 113/4/2 114/4/2 116/4/2
f 116/4/2 114/4/2 117/4/2
f 117/4/2 114/4/2 118/4/2
f 118/4/2 114/4/2 119/4/2
f 119/4/2 120/4/2 121/4/2
f 121/4/2 120/4/2 122/4/2
f 123/4/2 124/4/2 126/4/2
f 126/4/2 124/4/2 127/4/2
f 125/4/2 126/4/2 128/4/2
f 128/4/2 126/4/2 129/4/2
f 127/4/2 124/4/2 130/4/2
f 130/4/2 124/4/2 131/4/2
f 132/1/2 133/1/2 134/1/2
f 134/1/2 133/1/2 135/1/2
f 136/4/2 137/4/2 138/4/2
f 138/4/2 137/4/2 139/4/2
f 142/4/3 141/4/3 140/4/3
f 143/4/3 141/4/3 142/4/3
f 146/4/3 145/4/3 144/4/3
f 147/4/3 145/4/3 146/4/3
f 151/4/3 149/4/3 148/4/3
f 152/4/3 149/4/3 151/4/3
f 153/4/3 151/4/3 150/4/3
f 154/4/3 151/4/3 153/4/3
f 159/4/3 158/4/3 157/4/3
f 160/4/3 158/4/3 159/4/3
f 163/4/3 156/4/3 155/4/3
f 164/4/3 156/4/3 163/4/3
f 165/4/3 162/4/3 161/4/3
f 166/4/3 162/4/3 165/4/3
f 169/1/3 168/1/3 167/1/3
f 170/1/3 168/1/3 169/1/3
f 176/2/3 170/2/3 169/2/3
f 177/4/3 172/4/3 171/4/3
f 178/4/3 172/4/3 177/4/3
f 180/6/3 174/6/3 173/6/3
f 181/5/3 175/5/3 174/5/3
f 181/6/3 174/6/3 180/6/3
f 182/5/3 175/5/3 181/5/3
f 183/2/3 170/2/3 176/2/3
f 187/5/3 175/5/3 182/5/3
f 188/1/3 184/1/3 183/1/3
f 188/2/3 183/2/3 176/2/3
f 189/1/3 184/1/3 188/1/3
f 190/6/3 186/6/3 185/6/3
f 191/5/3 187/5/3 186/5/3
f 191/6/3 186/6/3 190/6/3
f 192/3/3 176/3/3 175/3/3
f 192/5/3 187/5/3 191/5/3
f 192/5/3 175/5/3 187/5/3
f 193/2/3 188/2/3 176/2/3
f 193/3/3 176/3/3 192/3/3
f 195/4/3 179/4/3 178/4/3
f 196/4/3 179/4/3 195/4/3
f 197/2/3 188/2/3 193/2/3
f 198/2/3 188/2/3 197/2/3
f 199/4/3 195/4/3 194/4/3
f 200/4/3 195/4/3 199/4/3
f 201/1/3 198/1/3 197/1/3
f 202/1/3 198/1/3 201/1/3
f 207/4/3 204/4/3 203/4/3
f 208/4/3 204/4/3 207/4/3
f 209/4/3 206/4/3 205/4/3
f 210/4/3 206/4/3 209/4/3
f 215/4/3 212/4/3 211/4/3
f 216/4/3 212/4/3 215/4/3
f 217/4/3 214/4/3 213/4/3
f 218/4/3 217/4/3 216/4/3
f 219/4/3 214/4/3 217/4/3
f 219/4/3 217/4/3 218/4/3
f 220/2/4 221/2/4 227/2/4
f 222/4/4 223/4/4 228/4/4
f 228/4/4 223/4/4 229/4/4
f 224/6/4 225/6/4 231/6/4
f 225/5/4 226/5/4 232/5/4
f 231/6/4 225/6/4 232/6/4
f 232/5/4 226/5/4 233/5/4
f 226/2/4 227/2/4 234/2/4
f 227/2/4 221/2/4 234/2/4
f 228/1/4 229/1/4 235/1/4
f 229/7/4 230/7/4 236/7/4
f 235/1/4 229/1/4 236/1/4
f 236/7/4 230/7/4 237/7/4
f 233/5/4 226/5/4 240/5/4
f 234/1/4 235/1/4 241/1/4
f 226/2/4 234/2/4 241/2/4
f 235/1/4 236/1/4 241/1/4
f 241/1/4 236/1/4 242/1/4
f 242/1/4 236/1/4 243/1/4
f 238/6/4 239/6/4 245/6/4
f 239/5/4 240/5/4 246/5/4
f 245/6/4 239/6/4 246/6/4
f 240/5/4 226/5/4 247/5/4
f 246/5/4 240/5/4 247/5/4
f 226/2/4 241/2/4 247/2/4
f 247/2/4 241/2/4 248/2/4
f 242/1/4 243/1/4 249/1/4
f 243/7/4 244/7/4 250/7/4
f 249/1/4 243/1/4 250/1/4
f 250/7/4 244/7/4 251/7/4
f 248/2/4 241/2/4 252/2/4
f 252/2/4 241/2/4 253/2/4
f 254/4/4 255/4/4 256/4/4
f 256/4/4 255/4/4 257/4/4
f 258/4/4 259/4/4 260/4/4
f 260/4/4 259/4/4 261/4/4
f 261/4/4 259/4/4 263/4/4
f 262/4/4 263/4/4 264/4/4
f 263/4/4 259/4/4 265/4/4
f 264/4/4 263/4/4 265/4/4
f 265/4/4 259/4/4 267/4/4
f 266/4/4 267/4/4 268/4/4
f 267/4/4 259/4/4 269/4/4
f 268/4/4 267/4/4 269/4/4
f 270/1/4 271/1/4 272/1/4
f 272/1/4 271/1/4 273/1/4
f 274/1/4 275/1/4 276/1/4
f 276/1/4 275/1/4 277/1/4
f 282/6/5 279/6/5 278/6/5
f 283/6/5 279/6/5 282/6/5
f 284/6/5 281/6/5 280/6/5
f 285/6/5 281/6/5 284/6/5
f 288/5/5 287/5/5 286/5/5
f 289/5/5 287/5/5 288/5/5
f 296/2/5 292/2/5 291/2/5
f 297/2/5 294/2/5 293/2/5
f 298/1/5 291/1/5 290/1/5
f 298/2/5 296/2/5 291/2/5
f 299/2/5 296/2/5 298/2/5
f 300/2/5 294/2/5 297/2/5
f 301/1/5 295/1/5 294/1/5
f 301/2/5 294/2/5 300/2/5
f 302/1/5 298/1/5 290/1/5
f 303/1/5 298/1/5 302/1/5
f 304/1/5 295/1/5 301/1/5
f 305/1/5 295/1/5 304/1/5
f 308/4/5 307/4/5 306/4/5
f 309/4/5 307/4/5 308/4/5
f 310/4/5 307/4/5 309/4/5
f 311/4/5 307/4/5 310/4/5
f 313/1/5 309/1/5 308/1/5
f 314/1/5 311/1/5 310/1/5
f 316/4/5 313/4/5 312/4/5
f 317/1/5 309/1/5 313/1/5
f 317/4/5 313/4/5 316/4/5
f 318/1/5 309/1/5 317/1/5
f 319/1/5 314/1/5 310/1/5
f 320/4/5 315/4/5 314/4/5
f 320/1/5 314/1/5 319/1/5
f 321/4/5 315/4/5 320/4/5
f 322/4/5 315/4/5 321/4/5
f 326/4/5 324/4/5 323/4/5
f 327/4/5 324/4/5 326/4/5
f 327/4/5 326/4/5 325/4/5
f 329/4/5 327/4/5 325/4/5
f 329/4/5 328/4/5 327/4/5
f 330/4/5 328/4/5 329/4/5
f 335/4/5 332/4/5 331/4/5
f 336/4/5 332/4/5 335/4/5
f 337/4/5 334/4/5 333/4/5
f 338/4/5 334/4/5 337/4/5
f 344/4/5 339/4/5 338/4/5
f 345/4/5 339/4/5 344/4/5
f 346/4/5 341/4/5 340/4/5
f 347/4/5 341/4/5 346/4/5
f 348/4/5 343/4/5 342/4/5
f 349/4/5 343/4/5 348/4/5
f 354/4/5 351/4/5 350/4/5
f 355/4/5 351/4/5 354/4/5
f 356/4/5 353/4/5 352/4/5
f 357/4/5 353/4/5 356/4/5
f 358/1/6 359/1/6 364/1/6
f 359/2/6 360/2/6 364/2/6
f 364/2/6 360/2/6 365/2/6
f 361/2/6 362/2/6 366/2/6
f 362/1/6 363/1/6 367/1/6
f 366/2/6 362/2/6 367/2/6
f 358/1/6 364/1/6 368/1/6
f 368/1/6 364/1/6 369/1/6
f 367/1/6 363/1/6 370/1/6
f 370/1/6 363/1/6 371/1/6
f 372/4/6 373/4/6 375/4/6
f 375/4/6 373/4/6 376/4/6
f 374/4/6 375/4/6 376/4/6
f 376/4/6 373/4/6 377/4/6
f 374/4/6 376/4/6 379/4/6
f 379/4/6 376/4/6 380/4/6
f 377/4/6 378/4/6 381/4/6
f 381/4/6 378/4/6 382/4/6
f 383/4/6 384/4/6 386/4/6
f 386/4/6 384/4/6 387/4/6
f 385/4/6 386/4/6 390/4/6
f 387/4/6 388/4/6 390/4/6
f 386/4/6 387/4/6 390/4/6
f 390/4/6 388/4/6 391/4/6
f 389/4/6 390/4/6 393/4/6
f 393/4/6 390/4/6 394/4/6
f 391/4/6 392/4/6 395/4/6
f 395/4/6 392/4/6 396/4/6
f 397/4/6 398/4/6 400/4/6
f 400/4/6 398/4/6 401/4/6
f 399/4/6 400/4/6 403/4/6
f 401/4/6 402/4/6 403/4/6
f 400/4/6 401/4/6 403/4/6
f 403/4/6 402/4/6 404/4/6
f 399/4/6 403/4/6 405/4/6
f 405/4/6 403/4/6 406/4/6
