# MagicaVoxel @ Ephtracy

# group
o 

# material
mtllib monster.mtl
usemtl palette

# normals
vn -1 0 0
vn 1 0 0
vn 0 0 1
vn 0 0 -1
vn 0 -1 0
vn 0 1 0

# texcoords
vt 0.435547 0.5
vt 0.572266 0.5
vt 0.673828 0.5

# verts
v -0.5 0 0.5
v -0.5 0 0.4
v -0.5 0.3 0.4
v -0.5 0.3 -0.4
v -0.5 1 0.5
v -0.5 1 -0.4
v -0.1 0 0.1
v -0.1 0 -0.1
v -0.1 0.2 0.1
v -0.1 0.2 -0.1
v 0.1 0 0.1
v 0.1 0 -0.1
v 0.1 0.2 0.1
v 0.1 0.2 -0.1
v 0.5 0 0.5
v 0.5 0 0.4
v 0.5 0.3 0.4
v 0.5 0.3 -0.4
v 0.5 1 0.5
v 0.5 1 -0.4
v -0.5 0 0.5
v -0.5 1 0.5
v -0.3 0.7 0.5
v -0.3 0.8 0.5
v -0.1 0.5 0.5
v -0.1 0.6 0.5
v 0 0.7 0.5
v 0 0.8 0.5
v 0.1 0.7 0.5
v 0.1 0.8 0.5
v 0.2 0.5 0.5
v 0.2 0.6 0.5
v 0.4 0.7 0.5
v 0.4 0.8 0.5
v 0.5 0 0.5
v 0.5 1 0.5
v -0.1 0 0.1
v -0.1 0.2 0.1
v 0.1 0 0.1
v 0.1 0.2 0.1
v -0.5 0 0.4
v -0.5 0.3 0.4
v 0.5 0 0.4
v 0.5 0.3 0.4
v -0.1 0 -0.1
v -0.1 0.2 -0.1
v 0.1 0 -0.1
v 0.1 0.2 -0.1
v -0.5 0.3 -0.4
v -0.5 1 -0.4
v 0.5 0.3 -0.4
v 0.5 1 -0.4
v -0.5 0 0.5
v 0.5 0 0.5
v -0.5 0 0.4
v 0.5 0 0.4
v -0.1 0 0.1
v 0.1 0 0.1
v -0.1 0 -0.1
v 0.1 0 -0.1
v -0.5 0.3 0.4
v 0.5 0.3 0.4
v -0.5 0.3 -0.4
v 0.5 0.3 -0.4
v -0.1 0.2 0.1
v 0.1 0.2 0.1
v -0.1 0.2 -0.1
v 0.1 0.2 -0.1
v -0.5 1 0.5
v 0.5 1 0.5
v -0.5 1 -0.4
v 0.5 1 -0.4

# faces
f 3/1/1 2/1/1 1/1/1
f 5/1/1 3/1/1 1/1/1
f 5/1/1 4/1/1 3/1/1
f 6/1/1 4/1/1 5/1/1
f 9/2/1 8/2/1 7/2/1
f 10/2/1 8/2/1 9/2/1
f 11/2/2 12/2/2 13/2/2
f 13/2/2 12/2/2 14/2/2
f 15/1/2 16/1/2 17/1/2
f 15/1/2 17/1/2 19/1/2
f 17/1/2 18/1/2 19/1/2
f 19/1/2 18/1/2 20/1/2
f 23/1/3 22/1/3 21/1/3
f 24/1/3 22/1/3 23/1/3
f 25/1/3 23/1/3 21/1/3
f 26/1/3 23/1/3 25/1/3
f 27/3/3 24/3/3 23/3/3
f 27/1/3 23/1/3 26/1/3
f 28/1/3 22/1/3 24/1/3
f 28/3/3 24/3/3 27/3/3
f 29/1/3 27/1/3 26/1/3
f 29/1/3 28/1/3 27/1/3
f 30/1/3 22/1/3 28/1/3
f 30/1/3 28/1/3 29/1/3
f 31/3/3 26/3/3 25/3/3
f 31/1/3 25/1/3 21/1/3
f 32/1/3 29/1/3 26/1/3
f 32/3/3 26/3/3 31/3/3
f 33/3/3 30/3/3 29/3/3
f 33/1/3 29/1/3 32/1/3
f 33/1/3 32/1/3 31/1/3
f 34/1/3 22/1/3 30/1/3
f 34/3/3 30/3/3 33/3/3
f 35/1/3 31/1/3 21/1/3
f 35/1/3 33/1/3 31/1/3
f 35/1/3 34/1/3 33/1/3
f 36/1/3 22/1/3 34/1/3
f 36/1/3 34/1/3 35/1/3
f 39/2/3 38/2/3 37/2/3
f 40/2/3 38/2/3 39/2/3
f 41/1/4 42/1/4 43/1/4
f 43/1/4 42/1/4 44/1/4
f 45/2/4 46/2/4 47/2/4
f 47/2/4 46/2/4 48/2/4
f 49/1/4 50/1/4 51/1/4
f 51/1/4 50/1/4 52/1/4
f 55/1/5 54/1/5 53/1/5
f 56/1/5 54/1/5 55/1/5
f 59/2/5 58/2/5 57/2/5
f 60/2/5 58/2/5 59/2/5
f 63/1/5 62/1/5 61/1/5
f 64/1/5 62/1/5 63/1/5
f 65/2/6 66/2/6 67/2/6
f 67/2/6 66/2/6 68/2/6
f 69/1/6 70/1/6 71/1/6
f 71/1/6 70/1/6 72/1/6
